<svg width="24" height="24" viewBox="0 0 24 24" fill="none" xmlns="http://www.w3.org/2000/svg">
<path d="M2 12C2 17.52 6.48 22 12 22C17.52 22 22 17.52 22 12C22 6.48 17.52 2 12 2C6.48 2 2 6.48 2 12ZM8.8 7.36C10.38 7.51 14.22 8.16 15.99 8.49C16.74 8.63 16.99 8.91 17.02 9.17C17.07 9.75 16.64 10.19 16.27 10.75C15.69 11.63 15.33 12.13 14.77 12.98C14.12 13.97 13.76 13.33 13.18 12.76C13.03 12.61 10.7 10.05 10.49 10C10.4582 9.99305 10.4252 9.99398 10.3938 10.0027C10.3624 10.0114 10.3337 10.0276 10.31 10.05C10.26 10.11 10.28 10.19 10.29 10.26C10.31 10.35 11.24 11.75 13.08 14.48C13.35 14.88 13.49 15.24 13.48 15.56C13.47 15.92 13.28 16.6 13.11 17.11C12.91 17.74 12.8 18.23 12.45 18.19C12.27 18.17 12.09 17.92 11.9 17.45C10.63 14.53 9.79 12.59 9.39 11.62C8.23 8.84 8.03 8.27 8.03 7.89C8.03 7.81 8.05 7.62 8.15 7.5C8.23 7.4 8.34 7.37 8.42 7.36C8.48 7.37 8.66 7.35 8.8 7.36V7.36Z" fill="#A897F7"/>
</svg>
