<svg width="24" height="24" viewBox="0 0 24 24" fill="none" xmlns="http://www.w3.org/2000/svg">
<path d="M0 12C0 18.6166 5.3833 23.9999 12 23.9999C14.0661 23.9999 16.0977 23.4662 17.8904 22.454L23.3374 23.9806C23.5163 24.0307 23.7083 23.9822 23.8414 23.8528C23.9442 23.7531 24 23.6175 24 23.4782C24 23.4364 23.9948 23.3942 23.9849 23.353L22.5767 17.6681C23.5085 15.9323 24 13.9773 24 12C24 5.38329 18.6167 -6.11346e-07 12 -6.11346e-07C5.3833 -6.11346e-07 0 5.38329 0 12ZM16.2344 5.96346C16.945 6.22015 17.5936 7.45145 17.6807 8.0431C17.7584 8.57423 17.7918 9.24623 17.5602 9.98397C17.4193 10.4311 17.2325 11.005 16.919 11.7401C15.601 14.8304 12.5285 16.8485 12.3256 17.0029C12.1226 17.1568 10.6763 18.2608 9.17948 18.2608C7.68261 18.2608 6.94643 17.4652 6.64174 17.1824C6.33704 16.8996 6.26087 16.5662 6.26087 16.3606C6.26087 16.1551 6.26348 15.95 6.27183 15.77C6.28122 15.5806 6.20035 15.3266 6.79409 15.0766C7.40348 14.82 8.90035 14.2038 9.05322 14.1276C9.20556 14.0504 9.38348 13.9993 9.58643 14.1015C9.78939 14.2038 9.91617 14.2549 10.0941 14.4093C10.272 14.5638 10.4906 14.7328 10.6273 14.8716C10.7791 15.026 10.9435 15.1862 11.2482 15.0067C11.5529 14.8273 12.5489 14.209 13.3555 13.2928C14.3917 12.1163 14.713 11.1234 14.8654 10.8156C15.0177 10.5078 14.9922 10.3278 14.7892 10.1483C14.5857 9.96884 13.9007 9.37823 13.5965 9.17319C13.2923 8.96814 13.3424 8.76258 13.4442 8.4798C13.5454 8.19702 14.281 6.68241 14.4334 6.37459C14.5857 6.06676 14.6619 5.8612 14.7887 5.78398C14.915 5.70676 15.5243 5.70676 16.2344 5.96346Z" fill="#A897F7"/>
</svg>
