<svg width="25" height="25" viewBox="0 0 25 25" fill="none" xmlns="http://www.w3.org/2000/svg">
<path d="M6.25 7.8125H12.5V9.375H6.25V7.8125ZM6.25 4.6875H15.625V6.25H6.25V4.6875ZM6.25 1.5625H15.625V3.125H6.25V1.5625Z" fill="black"/>
<path d="M3.68047 21.875L8.07969 14.0656L13.8875 19.1359C14.0631 19.2922 14.2716 19.4068 14.4976 19.4712C14.7236 19.5357 14.9612 19.5483 15.1928 19.5083C15.4243 19.4682 15.6439 19.3763 15.835 19.2397C16.0262 19.103 16.1841 18.9249 16.2969 18.7187L21.7422 10.5914L20.4445 9.72109L14.9758 17.8836L14.9211 17.9641L9.1125 12.8937C8.93699 12.7384 8.72883 12.6245 8.50339 12.5604C8.27796 12.4963 8.041 12.4836 7.81002 12.5234C7.57904 12.5631 7.35994 12.6543 7.16889 12.79C6.97785 12.9258 6.81974 13.1027 6.70625 13.3078L3.125 19.6742V1.5625H1.5625V21.875C1.56291 22.2893 1.72767 22.6865 2.0206 22.9794C2.31354 23.2723 2.71073 23.4371 3.125 23.4375H23.4375V21.875H3.68047Z" fill="black"/>
</svg>
