<svg width="25" height="25" viewBox="0 0 25 25" fill="none" xmlns="http://www.w3.org/2000/svg">
<path d="M9.73958 7.5H15.3125V8.90625H9.73958V7.5ZM9.73958 10.6771H15.3125V12.0833H9.73958V10.6771ZM17.0833 7.5H18.4375V8.90625H17.0833V7.5ZM17.0833 10.6771H18.4375V12.0833H17.0833V10.6771Z" stroke="black" stroke-linecap="round" stroke-linejoin="round"/>
<path d="M6.56251 2.76042V17.0833H3.38542V20.3125C3.38542 21.25 4.42709 22.6562 5.52084 22.6562H19.0625C19.7276 22.62 20.3559 22.3395 20.8269 21.8685C21.2978 21.3975 21.5784 20.7692 21.6146 20.1042V2.76042L20.4167 4.01042L18.8542 2.34375L17.2396 4.01042L15.6771 2.34375L14.0625 4.01042L12.5 2.34375L10.9375 4.01042L9.32292 2.34375L7.70834 4.01042L6.56251 2.76042Z" stroke="black" stroke-linecap="round" stroke-linejoin="round"/>
<path d="M6.5625 17.0833H7.91667V5.52075H20.2604V19.7395C20.2604 21.7708 17.4479 21.8749 17.4479 19.7395V17.0833H6.5625Z" stroke="black" stroke-linecap="round" stroke-linejoin="round"/>
</svg>
