<svg width="25" height="25" viewBox="0 0 25 25" fill="none" xmlns="http://www.w3.org/2000/svg">
<path fill-rule="evenodd" clip-rule="evenodd" d="M14.41 8.82181C14.4874 8.74905 14.5793 8.69133 14.6806 8.65194C14.7818 8.61256 14.8904 8.59229 15 8.59229C15.1096 8.59229 15.2181 8.61256 15.3194 8.65194C15.4206 8.69133 15.5126 8.74905 15.59 8.82181L18.9233 11.9468C19.0009 12.0194 19.0625 12.1056 19.1045 12.2005C19.1465 12.2954 19.1681 12.3972 19.1681 12.4999C19.1681 12.6027 19.1465 12.7044 19.1045 12.7994C19.0625 12.8943 19.0009 12.9805 18.9233 13.0531L15.59 16.1781C15.4335 16.3248 15.2213 16.4072 15 16.4072C14.7787 16.4072 14.5665 16.3248 14.41 16.1781C14.2535 16.0314 14.1656 15.8324 14.1656 15.6249C14.1656 15.4175 14.2535 15.2185 14.41 15.0718L17.155 12.4999L14.41 9.92806C14.3324 9.85549 14.2708 9.76927 14.2288 9.67436C14.1868 9.57944 14.1652 9.47769 14.1652 9.37493C14.1652 9.27217 14.1868 9.17042 14.2288 9.0755C14.2708 8.98059 14.3324 8.89438 14.41 8.82181ZM12.2566 8.82181C12.1792 8.74905 12.0873 8.69133 11.986 8.65194C11.8848 8.61256 11.7763 8.59229 11.6666 8.59229C11.557 8.59229 11.4485 8.61256 11.3473 8.65194C11.246 8.69133 11.1541 8.74905 11.0766 8.82181L7.74331 11.9468C7.66571 12.0194 7.60413 12.1056 7.56212 12.2005C7.52011 12.2954 7.49849 12.3972 7.49849 12.4999C7.49849 12.6027 7.52011 12.7044 7.56212 12.7994C7.60413 12.8943 7.66571 12.9805 7.74331 13.0531L11.0766 16.1781C11.2331 16.3248 11.4454 16.4072 11.6666 16.4072C11.8879 16.4072 12.1002 16.3248 12.2566 16.1781C12.4131 16.0314 12.501 15.8324 12.501 15.6249C12.501 15.4175 12.4131 15.2185 12.2566 15.0718L9.51164 12.4999L12.2566 9.92806C12.3342 9.85549 12.3958 9.76927 12.4378 9.67436C12.4798 9.57944 12.5015 9.47769 12.5015 9.37493C12.5015 9.27217 12.4798 9.17042 12.4378 9.0755C12.3958 8.98059 12.3342 8.89438 12.2566 8.82181V8.82181Z" fill="black"/>
<path d="M5 0H21.6667C22.5507 0 23.3986 0.32924 24.0237 0.915291C24.6488 1.50134 25 2.2962 25 3.125V21.875C25 22.7038 24.6488 23.4987 24.0237 24.0847C23.3986 24.6708 22.5507 25 21.6667 25H5C4.11595 25 3.2681 24.6708 2.64298 24.0847C2.01786 23.4987 1.66667 22.7038 1.66667 21.875V20.3125H3.33334V21.875C3.33334 22.2894 3.50893 22.6868 3.82149 22.9799C4.13405 23.2729 4.55798 23.4375 5 23.4375H21.6667C22.1087 23.4375 22.5326 23.2729 22.8452 22.9799C23.1577 22.6868 23.3333 22.2894 23.3333 21.875V3.125C23.3333 2.7106 23.1577 2.31317 22.8452 2.02015C22.5326 1.72712 22.1087 1.5625 21.6667 1.5625H5C4.55798 1.5625 4.13405 1.72712 3.82149 2.02015C3.50893 2.31317 3.33334 2.7106 3.33334 3.125V4.6875H1.66667V3.125C1.66667 2.2962 2.01786 1.50134 2.64298 0.915291C3.2681 0.32924 4.11595 0 5 0V0Z" fill="black"/>
<path d="M1.66667 7.8125V7.03125C1.66667 6.82405 1.75446 6.62534 1.91074 6.47882C2.06702 6.33231 2.27899 6.25 2.5 6.25C2.72101 6.25 2.93297 6.33231 3.08925 6.47882C3.24553 6.62534 3.33333 6.82405 3.33333 7.03125V7.8125H4.16667C4.38768 7.8125 4.59964 7.89481 4.75592 8.04132C4.9122 8.18784 5 8.38655 5 8.59375C5 8.80095 4.9122 8.99966 4.75592 9.14618C4.59964 9.29269 4.38768 9.375 4.16667 9.375H0.833333C0.612319 9.375 0.400358 9.29269 0.244078 9.14618C0.0877973 8.99966 0 8.80095 0 8.59375C0 8.38655 0.0877973 8.18784 0.244078 8.04132C0.400358 7.89481 0.612319 7.8125 0.833333 7.8125H1.66667ZM1.66667 12.5V11.7188C1.66667 11.5115 1.75446 11.3128 1.91074 11.1663C2.06702 11.0198 2.27899 10.9375 2.5 10.9375C2.72101 10.9375 2.93297 11.0198 3.08925 11.1663C3.24553 11.3128 3.33333 11.5115 3.33333 11.7188V12.5H4.16667C4.38768 12.5 4.59964 12.5823 4.75592 12.7288C4.9122 12.8753 5 13.074 5 13.2812C5 13.4885 4.9122 13.6872 4.75592 13.8337C4.59964 13.9802 4.38768 14.0625 4.16667 14.0625H0.833333C0.612319 14.0625 0.400358 13.9802 0.244078 13.8337C0.0877973 13.6872 0 13.4885 0 13.2812C0 13.074 0.0877973 12.8753 0.244078 12.7288C0.400358 12.5823 0.612319 12.5 0.833333 12.5H1.66667ZM1.66667 17.1875V16.4062C1.66667 16.199 1.75446 16.0003 1.91074 15.8538C2.06702 15.7073 2.27899 15.625 2.5 15.625C2.72101 15.625 2.93297 15.7073 3.08925 15.8538C3.24553 16.0003 3.33333 16.199 3.33333 16.4062V17.1875H4.16667C4.38768 17.1875 4.59964 17.2698 4.75592 17.4163C4.9122 17.5628 5 17.7615 5 17.9688C5 18.176 4.9122 18.3747 4.75592 18.5212C4.59964 18.6677 4.38768 18.75 4.16667 18.75H0.833333C0.612319 18.75 0.400358 18.6677 0.244078 18.5212C0.0877973 18.3747 0 18.176 0 17.9688C0 17.7615 0.0877973 17.5628 0.244078 17.4163C0.400358 17.2698 0.612319 17.1875 0.833333 17.1875H1.66667Z" fill="black"/>
</svg>
