<svg width="25" height="25" viewBox="0 0 25 25" fill="none" xmlns="http://www.w3.org/2000/svg">
<path d="M5.20676 4.32288C4.97235 4.32288 4.74754 4.416 4.58178 4.58175C4.41603 4.74751 4.32291 4.97232 4.32291 5.20673V19.7932C4.32291 20.0276 4.41603 20.2524 4.58178 20.4182C4.74754 20.5839 4.97235 20.677 5.20676 20.677H19.7932C20.0276 20.677 20.2524 20.5839 20.4182 20.4182C20.584 20.2524 20.6771 20.0276 20.6771 19.7932V5.20673C20.6771 4.97232 20.584 4.74751 20.4182 4.58175C20.2524 4.416 20.0276 4.32288 19.7932 4.32288H5.20676Z" stroke="black" stroke-linecap="round" stroke-linejoin="round"/>
<path d="M13.125 1.5609C13.0429 1.47882 12.9455 1.41371 12.8382 1.36929C12.731 1.32487 12.6161 1.302 12.5 1.302C12.3839 1.302 12.269 1.32487 12.1617 1.36929C12.0545 1.41371 11.9571 1.47882 11.875 1.5609L1.56093 11.875C1.47885 11.957 1.41374 12.0545 1.36932 12.1617C1.3249 12.2689 1.30203 12.3839 1.30203 12.5C1.30203 12.616 1.3249 12.731 1.36932 12.8382C1.41374 12.9454 1.47885 13.0429 1.56093 13.125L11.875 23.439C11.9571 23.5211 12.0545 23.5862 12.1617 23.6306C12.269 23.6751 12.3839 23.6979 12.5 23.6979C12.6161 23.6979 12.731 23.6751 12.8382 23.6306C12.9455 23.5862 13.0429 23.5211 13.125 23.439L23.4391 13.125C23.5211 13.0429 23.5862 12.9454 23.6307 12.8382C23.6751 12.731 23.6979 12.616 23.6979 12.5C23.6979 12.3839 23.6751 12.2689 23.6307 12.1617C23.5862 12.0545 23.5211 11.957 23.4391 11.875L13.125 1.5609Z" stroke="black" stroke-linecap="round" stroke-linejoin="round"/>
<path d="M8.20938 16.7906H16.7906V8.20935" stroke="black" stroke-linecap="round" stroke-linejoin="round"/>
<path d="M8.20938 12.6328H12.6328V8.20935" stroke="black" stroke-linecap="round" stroke-linejoin="round"/>
<path d="M8.20938 14.712H14.712V8.20935M8.20938 8.20935H10.5542V10.5541H8.20938V8.20935Z" stroke="black" stroke-linecap="round" stroke-linejoin="round"/>
</svg>
